<svg width="70" height="70" viewBox="0 0 70 70" fill="none" xmlns="http://www.w3.org/2000/svg">
<path d="M0 1.16211V2.32422H1.16211H2.32422V1.16211V0H1.16211H0V1.16211Z" fill="#FF3E1D"/>
<path d="M4.64844 1.16211V2.32422H5.81055H6.97266V1.16211V0H5.81055H4.64844V1.16211Z" fill="#FF3E1D"/>
<path d="M33.7695 2.32422V4.64844H35H36.2305V2.32422V0H35H33.7695V2.32422Z" fill="#FF3E1D"/>
<path d="M0 5.81055V6.97266H1.16211H2.32422V5.81055V4.64844H1.16211H0V5.81055Z" fill="#FF3E1D"/>
<path d="M29.9141 7.17773C29.5996 7.35547 29.4355 7.75195 28.6426 10.1445C28.1367 11.6758 27.6582 12.9883 27.5625 13.084C27.4805 13.166 26.8105 13.4941 26.0859 13.7949L24.7461 14.3418L22.3262 13.1934C20.8496 12.4824 19.7148 12.0312 19.4551 12.0312C18.1152 12.0312 12.0312 18.1152 12.0312 19.4551C12.0312 19.7148 12.4824 20.8496 13.1934 22.3125L14.3418 24.7324L13.7949 26.0723C13.4805 26.8105 13.166 27.4805 13.0703 27.5625C12.9883 27.6582 11.6758 28.1367 10.1445 28.6426C7.65625 29.4629 7.35547 29.5996 7.17773 29.9414C7.01367 30.2695 6.97266 31.1445 6.97266 34.9863C6.97266 39.8398 7.01367 40.1543 7.57422 40.4551C7.72461 40.5371 9.02344 41.002 10.4453 41.4668L13.043 42.3281L13.6445 43.7637C13.9727 44.543 14.2461 45.2402 14.2461 45.3223C14.2461 45.3906 13.7539 46.5117 13.1387 47.7969C12.5098 49.1367 12.0312 50.3262 12.0312 50.5586C12.0312 51.8711 18.1289 57.9688 19.4414 57.9688C19.6875 57.9688 20.8906 57.4902 22.2715 56.834L24.6777 55.6992L25.6484 56.123C26.168 56.3555 26.8516 56.6289 27.1523 56.752L27.6855 56.9707L28.6152 59.7871C29.4629 62.3438 29.5859 62.6445 29.9414 62.8223C30.2695 62.9863 31.1445 63.0273 34.9863 63.0273C38.1719 63.0273 39.7441 62.9727 39.9766 62.877C40.4141 62.6719 40.5371 62.3848 41.5078 59.418C42.123 57.5586 42.3828 56.957 42.5879 56.8613C42.7383 56.8066 43.4219 56.5195 44.0918 56.2324L45.3359 55.6992L47.7148 56.834C49.123 57.4902 50.2852 57.9688 50.5449 57.9688C51.8574 57.9824 57.9688 51.8848 57.9688 50.5586C57.9688 50.3262 57.4902 49.1367 56.8613 47.7969C56.2461 46.5117 55.7539 45.3906 55.7539 45.3223C55.7539 45.2402 56.0273 44.543 56.3555 43.7637L56.957 42.3281L59.5547 41.4668C62.5352 40.4824 62.6719 40.4141 62.877 39.9629C63.0957 39.498 63.082 30.4883 62.877 30.0234C62.6719 29.5859 62.3848 29.4629 59.4727 28.5059C58.1602 28.0684 57.0117 27.6582 56.9297 27.5625C56.834 27.4805 56.5195 26.8105 56.2188 26.0723L55.6582 24.7461L56.8203 22.2988C57.4766 20.8906 57.9688 19.6738 57.9688 19.4414C57.9688 18.1152 51.8711 12.0312 50.5449 12.0312C50.2852 12.0312 49.1504 12.4824 47.6875 13.1934L45.2676 14.3418L43.9277 13.7949C43.1895 13.4805 42.5195 13.166 42.4375 13.0703C42.3418 12.9883 41.9316 11.8398 41.4941 10.5273C40.5371 7.61523 40.4141 7.32812 39.9766 7.12305C39.7441 7.02734 38.1719 6.97266 34.959 6.97266C31.1445 6.98633 30.2148 7.01367 29.9141 7.17773ZM39.498 11.9219C39.9766 13.3711 40.4688 14.6699 40.5918 14.793C40.7969 15.0117 44.9941 16.8164 45.2812 16.8164C45.459 16.8164 47.1953 16.0371 49 15.1484C50.5723 14.3828 50.2988 14.3145 52.1582 15.9551C53.2109 16.8984 55.0977 18.9355 55.3984 19.4688C55.4531 19.5645 55.0156 20.6582 54.4141 21.9297C53.8125 23.1875 53.293 24.3633 53.252 24.5137C53.1562 24.8691 54.8379 29.0664 55.207 29.4082C55.3301 29.5312 56.6289 30.0234 58.0781 30.502L60.7031 31.377V35V38.623L58.0781 39.498C56.6289 39.9766 55.3301 40.4551 55.207 40.5645C55.084 40.6875 54.8379 41.1797 54.6738 41.6855C54.5098 42.1777 54.0996 43.1758 53.7715 43.8867C53.375 44.748 53.1973 45.2949 53.252 45.5C53.293 45.6641 53.8125 46.8262 54.4141 48.084C55.6719 50.709 55.7129 50.2715 54.0449 52.1582C53.1016 53.2109 51.0645 55.0977 50.5312 55.3984C50.4492 55.4395 49.3418 55.002 48.084 54.4004C46.8125 53.8125 45.6504 53.293 45.4863 53.252C45.2949 53.1973 44.7207 53.3887 43.8867 53.7715C43.1758 54.0996 42.1777 54.5098 41.6855 54.6738C41.1797 54.8379 40.6875 55.084 40.5645 55.207C40.4551 55.3301 39.9766 56.6289 39.498 58.0645L38.623 60.7031H35H31.377L30.502 58.0781C30.0234 56.6289 29.5449 55.3301 29.4355 55.207C29.3125 55.084 28.8203 54.8379 28.3145 54.6738C27.8223 54.5098 26.8242 54.0996 26.1133 53.7715C25.293 53.3887 24.7051 53.1973 24.5137 53.2383C24.3633 53.2793 23.1875 53.8125 21.9297 54.4141L19.6328 55.4941L19.1543 55.1387C17.7598 54.0996 15.0801 51.3789 14.6016 50.5176C14.5332 50.4219 14.9434 49.4102 15.5859 48.0703C16.1875 46.8262 16.707 45.6641 16.748 45.5C16.8027 45.2949 16.625 44.748 16.2285 43.8867C15.9004 43.1758 15.4902 42.1777 15.3262 41.6855C15.1621 41.1797 14.916 40.6875 14.793 40.5645C14.6699 40.4551 13.3711 39.9766 11.9355 39.498L9.29688 38.623V35V31.377L11.9355 30.502C13.3711 30.0234 14.6699 29.5312 14.793 29.4082C15.1758 29.0391 16.8438 24.8691 16.748 24.5C16.707 24.3359 16.1875 23.1738 15.5859 21.916C14.3281 19.291 14.2871 19.7285 15.9551 17.8418C16.8984 16.7754 18.9355 14.9023 19.4824 14.6016C19.5781 14.5332 20.5898 14.9434 21.9297 15.5859C23.1738 16.1875 24.3359 16.707 24.5137 16.748C24.8691 16.8438 29.0391 15.1758 29.4082 14.793C29.5312 14.6699 30.0234 13.3711 30.502 11.9219L31.377 9.29688H35H38.623L39.498 11.9219Z" fill="#FF3E1D"/>
<path d="M33.5645 16.4199C29.2578 16.707 25.293 18.4981 22.0664 21.6289C19.8105 23.8164 18.2656 26.25 17.3086 29.1211C16.6523 31.1035 16.3789 32.7988 16.3789 35C16.3789 37.2012 16.6523 38.8965 17.3086 40.8789C18.2656 43.75 19.8105 46.1836 22.0664 48.3711C25.6484 51.8438 30.0098 53.6074 35 53.6074C38.8555 53.6074 42.1367 52.6094 45.3906 50.4766C46.8398 49.5195 49.0547 47.3867 50.0801 45.9512C54.8106 39.4023 54.8106 30.5977 50.0801 24.0488C49.0547 22.6133 46.8398 20.4805 45.3906 19.5234C41.7539 17.1309 37.9805 16.1465 33.5645 16.4199ZM38.1035 18.9902C43.7637 20.0977 48.4121 24.0762 50.3809 29.5313C51.8164 33.5234 51.5156 38.4863 49.5879 42.3145C48.1113 45.2539 45.2539 48.1113 42.3145 49.5879C37.8574 51.8301 32.1563 51.8438 27.7402 49.6289C24.7051 48.0977 21.916 45.3086 20.4121 42.3145C18.1563 37.8301 18.1563 32.1699 20.4121 27.6855C22.2441 24.0352 25.6348 21.0273 29.5313 19.6191C32.0195 18.7168 35.4375 18.4707 38.1035 18.9902Z" fill="#FF3E1D"/>
<path d="M42.8613 25.8398C42.7109 25.8945 40.0996 28.4512 37.0508 31.5L31.5137 37.0508L29.1895 34.7266C27.3984 32.9355 26.7559 32.3887 26.4141 32.3203C25.9766 32.2246 25.8945 32.3066 23.502 34.6719C21.2461 36.9141 21.0547 37.1465 21.0547 37.5977C21.0547 38.0488 21.3418 38.377 25.9492 42.9707L30.8438 47.8516H31.5137H32.1973L40.3594 39.6758C47.9883 32.0469 48.5352 31.4863 48.5352 31.0352C48.5352 30.6113 48.3164 30.3516 46.1836 28.2188C43.832 25.8672 43.4355 25.5801 42.8613 25.8398ZM38.623 38.1445L31.5137 45.2539L27.6855 41.4258L23.8574 37.5977L25.0879 36.3672L26.3047 35.1367L28.6426 37.4609C30.8711 39.6758 31.0078 39.7852 31.5137 39.7852C32.0469 39.7852 32.1836 39.6484 37.666 34.1797L43.2715 28.5742L44.502 29.8047L45.7324 31.0352L38.623 38.1445Z" fill="#FF3E1D"/>
<path d="M10.1855 10.2539L9.36523 11.0742L11.0469 12.7559L12.7148 14.4238L13.5625 13.5625L14.4238 12.7148L12.7832 11.0742C11.8809 10.1719 11.1152 9.43359 11.0742 9.43359C11.0332 9.43359 10.6367 9.80273 10.1855 10.2539Z" fill="#FF3E1D"/>
<path d="M57.2168 11.0742L55.5762 12.7148L56.4375 13.5625L57.2852 14.4238L58.9531 12.7559L60.6348 11.0742L59.8145 10.2539C59.3633 9.80273 58.9668 9.43359 58.9258 9.43359C58.8848 9.43359 58.1191 10.1719 57.2168 11.0742Z" fill="#FF3E1D"/>
<path d="M0 35V36.2305H2.32422H4.64844V35V33.7695H2.32422H0V35Z" fill="#FF3E1D"/>
<path d="M65.3516 35V36.2305H67.6758H70V35V33.7695H67.6758H65.3516V35Z" fill="#FF3E1D"/>
<path d="M11.0059 57.2852L9.36523 58.9258L10.2266 59.7734L11.0742 60.6348L12.7422 58.9668L14.4238 57.2852L13.6035 56.4648C13.1523 56.0137 12.7559 55.6445 12.7148 55.6445C12.6738 55.6445 11.9082 56.3828 11.0059 57.2852Z" fill="#FF3E1D"/>
<path d="M56.3965 56.4649L55.5762 57.2852L57.2305 58.9395L58.8848 60.5938L59.7188 59.7188L60.5527 58.8574L58.9531 57.2441C58.0781 56.3691 57.3262 55.6445 57.2852 55.6445C57.2441 55.6445 56.8477 56.0137 56.3965 56.4649Z" fill="#FF3E1D"/>
<path d="M67.6758 64.1895V65.3516H68.8379H70V64.1895V63.0273H68.8379H67.6758V64.1895Z" fill="#FF3E1D"/>
<path d="M33.7695 67.6758V70H35H36.2305V67.6758V65.3516H35H33.7695V67.6758Z" fill="#FF3E1D"/>
<path d="M63.0273 68.8379V70H64.1895H65.3516V68.8379V67.6758H64.1895H63.0273V68.8379Z" fill="#FF3E1D"/>
<path d="M67.6758 68.8379V70H68.8379H70V68.8379V67.6758H68.8379H67.6758V68.8379Z" fill="#FF3E1D"/>
</svg>
