<svg width="14" height="14" viewBox="0 0 14 14" fill="none" xmlns="http://www.w3.org/2000/svg">
<g clip-path="url(#clip0_234_43)">
<path d="M12.6601 1.77734H1.28517C0.561403 1.77734 -0.0273438 2.36609 -0.0273438 3.08985V10.9648C-0.0273438 11.6886 0.561403 12.2774 1.28517 12.2774H12.6601C13.3839 12.2774 13.9727 11.6886 13.9727 10.9648V3.08985C13.9727 2.36609 13.3839 1.77734 12.6601 1.77734ZM12.6601 2.65234C12.7196 2.65234 12.7761 2.66467 12.8278 2.68621L6.97266 7.76093L1.11745 2.68621C1.16915 2.6647 1.22569 2.65234 1.28514 2.65234H12.6601ZM12.6601 11.4023H1.28517C1.04377 11.4023 0.847653 11.2062 0.847653 10.9648V3.61065L6.68597 8.67053C6.76844 8.74187 6.87055 8.77734 6.97266 8.77734C7.07476 8.77734 7.17687 8.7419 7.25934 8.67053L13.0977 3.61065V10.9648C13.0976 11.2062 12.9015 11.4023 12.6601 11.4023Z" fill="#FB1B1D"/>
</g>
<defs>
<clipPath id="clip0_234_43">
<rect width="14" height="14" fill="white"/>
</clipPath>
</defs>
</svg>
