<svg width="60" height="60" viewBox="0 0 60 60" fill="none" xmlns="http://www.w3.org/2000/svg">
<g clip-path="url(#clip0_829_122)">
<path d="M29.3086 5.46093C29.0742 5.7539 29.0625 5.92968 29.0625 7.93358C29.0625 9.11718 29.1094 10.1836 29.1797 10.3008C29.3672 10.6641 29.9414 10.8398 30.3516 10.6641C30.5508 10.582 30.7617 10.418 30.8203 10.3008C30.8906 10.1836 30.9375 9.11718 30.9375 7.93358C30.9375 5.92968 30.9258 5.7539 30.6914 5.46093C30.5039 5.22655 30.3516 5.15624 30 5.15624C29.6484 5.15624 29.4961 5.22655 29.3086 5.46093Z" fill="#FF3E1D"/>
<path d="M23.6953 9.17578C23.5312 9.33984 23.4375 9.59765 23.4375 9.83203C23.4375 10.1719 23.5898 10.3828 24.5039 11.3203C25.0898 11.918 25.7227 12.4687 25.9102 12.5391C26.5312 12.8086 27.1875 12.3047 27.1875 11.5781C27.1875 11.4258 26.7422 10.875 25.9922 10.125C24.9141 9.02344 24.7617 8.90625 24.375 8.90625C24.082 8.90625 23.8711 8.98828 23.6953 9.17578Z" fill="#FF3E1D"/>
<path d="M34.0078 10.125C33.0352 11.1093 32.8125 11.4023 32.8125 11.6836C32.8125 12.082 33.1641 12.5039 33.5625 12.6093C33.9844 12.7148 34.418 12.4218 35.543 11.2734C36.4219 10.3711 36.5625 10.1718 36.5625 9.82029C36.5625 9.29294 36.1641 8.90622 35.6133 8.90622C35.25 8.90622 35.0742 9.03513 34.0078 10.125Z" fill="#FF3E1D"/>
<path d="M4.39463 11.0039C3.82041 11.2734 3.23447 11.8711 3.00009 12.4453C2.70713 13.1367 2.754 14.1914 3.10556 14.8828C3.39853 15.457 4.19541 16.1719 4.53525 16.1719C4.65244 16.1719 4.68759 16.4297 4.68759 17.2851C4.68759 18.3516 4.67588 18.4101 4.40634 18.5156C3.94931 18.6914 3.25791 19.3594 3.03525 19.8633C2.85947 20.2383 2.81259 20.6367 2.81259 21.9609C2.81259 23.543 2.80088 23.5898 2.49619 23.9531C2.03916 24.4922 1.87509 24.9844 1.87509 25.7812C1.87509 26.5781 2.03916 27.0703 2.49619 27.6094L2.81259 27.9844V38.8125V49.6523L2.34384 49.8633C1.71103 50.1562 0.761813 51.1875 0.375094 51.9961C0.152438 52.5 0.0586882 52.9101 0.0235319 53.5664C-0.0467806 54.9375 -0.456937 54.8437 5.63681 54.8437C10.3595 54.8437 10.7579 54.832 10.922 54.6328C11.2267 54.3047 11.2735 53.9531 11.1329 53.1797C10.8751 51.7734 10.0313 50.543 8.89463 49.8984L8.43759 49.6406V40.5351C8.43759 34.5117 8.39072 31.3125 8.32041 31.1016C8.07431 30.457 7.41806 30.2812 6.86728 30.7148L6.56259 30.9492V40.0898V49.2187H5.62509H4.68759V38.918V28.6172L6.01181 28.5703C7.0665 28.5351 7.41806 28.4766 7.80478 28.2773C9.38681 27.4453 9.83213 25.2656 8.67197 23.9648C8.49619 23.7656 8.44931 23.4492 8.41416 22.0312C8.379 20.6836 8.32041 20.25 8.15634 19.9219C7.88681 19.4062 7.30088 18.7851 6.89072 18.5625C6.57431 18.3984 6.56259 18.375 6.56259 17.3086V16.2305L7.03134 15.9609C7.94541 15.4453 8.55478 14.1562 8.36728 13.1367C8.1915 12.1992 7.57041 11.3789 6.73838 11.0039C6.11728 10.7109 5.01572 10.7226 4.39463 11.0039ZM6.17588 12.9141C6.51572 13.3008 6.56259 13.5 6.37509 13.9219C6.17588 14.4023 5.71884 14.6016 5.25009 14.4023C4.86338 14.2383 4.68759 13.9687 4.68759 13.5234C4.68759 12.7617 5.67197 12.3633 6.17588 12.9141ZM6.22275 20.4609C6.46884 20.7305 6.504 20.8828 6.53916 21.8672L6.58603 22.9687H5.63681H4.68759V21.8086C4.68759 20.6836 4.69931 20.6367 4.99228 20.4023C5.41416 20.0625 5.87119 20.0859 6.22275 20.4609ZM7.10166 25.1133C7.53525 25.5 7.53525 26.0625 7.10166 26.4492C6.80869 26.6953 6.67978 26.7187 5.55478 26.7187C4.40634 26.7187 4.30088 26.6953 4.04306 26.4258C3.63291 26.0273 3.64463 25.418 4.05478 25.0898C4.32431 24.8789 4.53525 24.8437 5.57822 24.8437C6.66806 24.8437 6.80869 24.8672 7.10166 25.1133ZM7.61728 51.375C8.13291 51.6445 8.754 52.2305 8.97666 52.6406L9.15244 52.9687H5.5665H1.98056L2.15634 52.6406C2.35556 52.2656 2.98838 51.6562 3.39853 51.4336C3.93759 51.164 4.38291 51.1055 5.80088 51.1406C6.879 51.164 7.30088 51.2109 7.61728 51.375Z" fill="#FF3E1D"/>
<path d="M53.2618 11.0039C52.4297 11.3789 51.8086 12.1992 51.6329 13.1367C51.4454 14.1562 52.0547 15.4453 52.9688 15.9609L53.4376 16.2305V17.2969C53.4376 18.3398 53.4258 18.375 53.1211 18.5742C52.5704 18.9258 52.1368 19.3711 51.879 19.8633C51.668 20.2617 51.6211 20.5898 51.586 22.0312C51.5508 23.4492 51.504 23.7656 51.3282 23.9648C50.4961 24.9023 50.4727 26.5664 51.2696 27.5156L51.5626 27.8672V38.7539V49.6406L51.1055 49.8984C49.9688 50.543 49.1251 51.7734 48.8672 53.1797C48.7266 53.9531 48.7735 54.3047 49.0782 54.6328C49.2422 54.832 49.6407 54.8438 54.3985 54.8438C59.461 54.8438 59.5313 54.8438 59.7774 54.5977C60.129 54.2461 60.0586 52.9336 59.6251 51.9961C59.2383 51.1875 58.2891 50.1562 57.6563 49.8633L57.1876 49.6523V38.8125V27.9844L57.504 27.6094C57.961 27.0703 58.1251 26.5781 58.1251 25.7578C58.1251 24.9492 57.8555 24.2344 57.4336 23.8594C57.1993 23.6484 57.1876 23.5195 57.1876 21.9844C57.1876 20.6367 57.1407 20.25 56.9649 19.8633C56.7422 19.3594 56.0508 18.6914 55.5938 18.5156C55.3243 18.4102 55.3126 18.3516 55.3126 17.2852C55.3126 16.4648 55.3477 16.1719 55.4649 16.1719C55.793 16.1719 56.5079 15.5391 56.836 14.9648C57.668 13.5234 57.0352 11.5898 55.5235 10.9688C54.9258 10.7109 53.8477 10.7344 53.2618 11.0039ZM55.043 12.9141C55.5235 13.3594 55.3711 14.1445 54.7501 14.4023C54.3047 14.5898 53.8594 14.4141 53.6251 13.957C53.168 13.0781 54.3165 12.2344 55.043 12.9141ZM55.0079 20.4023C55.3008 20.6367 55.3126 20.6836 55.3126 21.8086V22.9688H54.3633H53.4141L53.461 21.8672C53.4961 20.8828 53.5313 20.7305 53.7774 20.4609C54.129 20.0859 54.586 20.0625 55.0079 20.4023ZM55.9454 25.0898C56.3555 25.418 56.3672 26.0273 55.9571 26.4258C55.6993 26.6953 55.5938 26.7188 54.4454 26.7188C53.3204 26.7188 53.1915 26.6953 52.8985 26.4492C52.6641 26.25 52.5821 26.0625 52.5821 25.7812C52.5821 25.5 52.6641 25.3125 52.8985 25.1133C53.1915 24.8672 53.3321 24.8438 54.4219 24.8438C55.4649 24.8438 55.6758 24.8789 55.9454 25.0898ZM55.3126 38.9062V49.2188H54.3751H53.4376V38.9062V28.5938H54.3751H55.3126V38.9062ZM56.1211 51.2812C56.7774 51.4688 57.4571 52.0078 57.8086 52.6055L58.0196 52.9688H54.4336H50.8477L51.0235 52.6406C51.3516 52.0078 52.1836 51.375 52.9102 51.1992C53.5782 51.0469 55.4766 51.082 56.1211 51.2812Z" fill="#FF3E1D"/>
<path d="M29.1798 12.7852C28.418 13.0898 28.2891 13.3594 27.0587 17.1328L25.8868 20.7422H22.2188C19.793 20.7422 18.4102 20.7891 18.1524 20.8711C16.9337 21.2812 16.418 22.7461 17.0977 23.8594C17.2266 24.082 18.4571 25.0547 20.1212 26.25C21.6563 27.3633 23.004 28.3594 23.1094 28.4648C23.3087 28.6406 23.2501 28.8516 22.2071 32.0508C21.0469 35.6016 20.9297 36.2461 21.2696 36.9141C21.7266 37.793 23.0508 38.2383 23.9063 37.793C24.129 37.6758 25.5587 36.668 27.0938 35.5547C28.629 34.4297 29.9415 33.5156 30.0001 33.5156C30.0587 33.5156 31.3712 34.4297 32.9063 35.5547C34.4415 36.668 35.8712 37.6758 36.0938 37.793C36.9493 38.2383 38.2735 37.793 38.7305 36.9141C39.0704 36.2461 38.9532 35.6016 37.793 32.0508C36.7501 28.8516 36.6915 28.6406 36.8907 28.4648C36.9962 28.3594 38.3438 27.3633 39.879 26.25C41.543 25.0547 42.7735 24.082 42.9024 23.8594C43.6055 22.7109 43.043 21.2344 41.7774 20.8594C41.4727 20.7773 40.5587 20.7422 39.1758 20.7656C36.7969 20.8008 36.7266 20.8242 36.5977 21.5859C36.5508 21.9375 36.586 22.0664 36.8321 22.3125C37.1368 22.6172 37.1368 22.6172 39.1876 22.6172C40.3126 22.6172 41.2618 22.6641 41.2969 22.7227C41.3321 22.7812 39.8907 23.8945 38.086 25.207C35.8477 26.8359 34.7696 27.6797 34.6876 27.9023C34.5704 28.1836 34.6993 28.6758 35.8126 32.0977C36.504 34.2305 37.043 36 37.0079 36.0469C36.961 36.082 35.4727 35.0508 33.6915 33.7617C31.9102 32.4609 30.3282 31.3711 30.1758 31.3359C30.0235 31.3008 29.7774 31.3359 29.6251 31.4063C29.4844 31.4883 27.9376 32.5781 26.2149 33.832C24.4805 35.0859 23.0391 36.082 23.004 36.0469C22.9571 36 23.4962 34.2305 24.1876 32.0977C25.3008 28.6758 25.4297 28.1836 25.3126 27.9023C25.2305 27.6797 24.1524 26.8359 21.9141 25.207C20.1094 23.8945 18.668 22.7812 18.7032 22.7227C18.7383 22.6641 20.5899 22.6172 22.8399 22.6172C26.5665 22.6172 26.9532 22.5938 27.1641 22.4062C27.3282 22.2773 27.6915 21.3164 28.2422 19.6289C28.6993 18.2109 29.2618 16.4883 29.4962 15.7852C29.7188 15.0937 29.9415 14.5312 30.0001 14.5312C30.0587 14.5312 30.6563 16.2539 31.3477 18.3633C32.2032 21 32.6719 22.2773 32.836 22.4062C33.3985 22.8867 34.336 22.4766 34.336 21.7383C34.336 21.5625 33.7618 19.6406 33.0469 17.4727C31.6876 13.3008 31.5821 13.0898 30.7852 12.7852C30.3751 12.6328 29.5782 12.6328 29.1798 12.7852Z" fill="#FF3E1D"/>
<path d="M19.0547 28.8516C18.7969 29.0977 18.4805 30.375 15.9492 41.3906C14.3906 48.1289 13.125 53.8125 13.125 54.0117C13.125 54.2227 13.2305 54.4805 13.3594 54.6094C13.5938 54.8438 13.7461 54.8438 30 54.8438C46.2539 54.8438 46.4062 54.8438 46.6406 54.6094C46.7695 54.4805 46.875 54.2227 46.875 54.0117C46.875 53.8125 45.6094 48.1289 44.0508 41.3906C41.5195 30.375 41.2031 29.0977 40.9453 28.8516C40.418 28.3828 39.5859 28.6055 39.4453 29.2734C39.3867 29.5195 42.9492 45.3867 44.707 52.6992L44.7656 52.9688H30H15.2344L15.293 52.6992C17.0508 45.3867 20.6133 29.5195 20.5547 29.2734C20.4141 28.6055 19.582 28.3828 19.0547 28.8516Z" fill="#FF3E1D"/>
</g>
<defs>
<clipPath id="clip0_829_122">
<rect width="60" height="60" fill="white"/>
</clipPath>
</defs>
</svg>
