<svg width="50" height="50" viewBox="0 0 50 50" fill="none" xmlns="http://www.w3.org/2000/svg">
<path d="M6.68945 0.117199C6.42578 0.166027 5.83984 0.380871 5.39062 0.595715C3.92578 1.29884 2.86133 2.62696 2.44141 4.24806C2.24609 5.00001 2.24609 5.34181 2.24609 21.5332C2.24609 37.7246 2.24609 38.0664 2.44141 38.8184C2.91992 40.7031 4.22852 42.0996 6.15234 42.793L6.78711 43.0176L13.9648 43.0469L21.1426 43.0762L21.6504 43.8379C23.125 46.0254 25.5469 47.9492 28.1055 48.9649C34.0723 51.3477 40.957 49.4141 44.8242 44.2578C48.623 39.1895 48.6816 32.334 44.9512 27.2363C43.0371 24.5996 39.9219 22.5098 36.8457 21.7774L36.3281 21.6602V16.8652C36.3184 13.3399 36.2891 11.9922 36.2012 11.7969C36.0352 11.4258 25.332 0.20509 25.0293 0.0879021C24.7168 -0.0292854 7.34375 -0.00975418 6.68945 0.117199ZM23.6328 5.85939C23.6914 9.89259 23.7012 9.98048 24.2383 10.9082C24.7852 11.875 25.6348 12.5684 26.8164 13.0078C27.3535 13.2031 27.6074 13.2227 30.8398 13.2617L34.2773 13.3008V17.334V21.3672L33.1543 21.377C30.0488 21.3965 26.7578 22.5781 24.4043 24.5215L23.9551 24.8926L17.0996 24.9219L10.2344 24.9512L9.95117 25.2735C9.39453 25.8985 9.66797 26.7676 10.498 26.9531C10.7129 27.002 13.3594 27.0508 16.3867 27.0508C19.4043 27.0508 21.875 27.0703 21.875 27.0996C21.875 27.1192 21.6211 27.5293 21.3184 27.9981C21.0156 28.4668 20.6152 29.1797 20.4395 29.5703L20.1074 30.2735H15.1758H10.2344L9.95117 30.5567C9.55078 30.957 9.55078 31.5137 9.95117 31.9531L10.2344 32.2754L14.8438 32.3047L19.4531 32.334L19.4043 32.5488C19.1797 33.4668 19.1016 34.2481 19.1016 35.5957C19.1113 37.5586 19.2871 38.6231 19.9902 40.752C20.0391 40.918 19.7266 40.918 13.4668 40.8985L6.88477 40.8692L6.34766 40.6055C5.2832 40.0781 4.58984 39.1309 4.39453 37.9199C4.26758 37.1582 4.26758 5.90821 4.39453 5.1465C4.64844 3.584 5.77148 2.40236 7.24609 2.15821C7.5293 2.10939 11.3281 2.08009 15.6738 2.08986L23.584 2.09962L23.6328 5.85939ZM29.6973 7.86134L32.7539 11.084L30.2441 11.1133C27.8613 11.1328 27.7051 11.1231 27.2461 10.9277C26.9824 10.8106 26.5918 10.5274 26.377 10.3027C25.7422 9.61915 25.6836 9.25782 25.6836 6.25978V3.66212L26.1621 4.1504C26.4258 4.42384 28.0176 6.084 29.6973 7.86134ZM34.873 23.5449C37.7441 23.916 40.2441 25.1758 42.2363 27.2559C46.6992 31.9238 46.7383 39.2676 42.3242 44.043C41.7773 44.6289 40.5957 45.5957 39.7949 46.1133C36.8262 48.0078 32.6172 48.4278 29.1797 47.1582C25.5371 45.8203 22.7246 42.793 21.6406 39.0528C21.2695 37.7442 21.1621 36.7676 21.2207 35.166C21.3379 32.0703 22.4316 29.4824 24.5605 27.2559C27.2461 24.4336 31.0938 23.0567 34.873 23.5449Z" fill="#525260"/>
<path d="M9.97085 20.0293C9.43374 20.5664 9.60952 21.416 10.3224 21.6894C10.4591 21.7383 12.8419 21.7773 15.9767 21.7773C21.9435 21.7773 21.8068 21.7871 22.1291 21.1816C22.3439 20.7617 22.2365 20.293 21.8654 19.9805L21.5627 19.7266H15.9181H10.2736L9.97085 20.0293Z" fill="#525260"/>
<path d="M32.9395 27.8027C32.6562 27.959 26.8066 34.1406 26.4258 34.6875C26.3379 34.8047 26.2695 35.0781 26.2695 35.2832C26.2695 36.0352 27.0801 36.4746 27.8027 36.1133C27.9199 36.0547 28.9746 34.9805 30.1465 33.7207L32.2754 31.4355L32.3242 37.2266C32.3633 41.6797 32.4023 43.0664 32.5 43.2324C32.6465 43.4863 33.0957 43.75 33.3984 43.75C33.7012 43.75 34.1504 43.4863 34.2969 43.2324C34.3945 43.0664 34.4336 41.6797 34.4727 37.2168L34.5215 31.4258L36.6699 33.7402C37.9785 35.166 38.9355 36.1133 39.1309 36.1914C39.9609 36.543 40.8398 35.5859 40.4004 34.7949C40.2832 34.5898 34.668 28.5254 34.1113 28.0176C33.7402 27.666 33.3301 27.5879 32.9395 27.8027Z" fill="#525260"/>
</svg>
