<svg width="43" height="43" viewBox="0 0 43 43" fill="none" xmlns="http://www.w3.org/2000/svg">
<g opacity="0.2" clip-path="url(#clip0_413_4480)">
<path d="M28.7646 40.3881C29.3693 40.2453 32.0988 38.826 33.2578 38.0533C34.7611 37.0539 35.6093 36.3736 36.8775 35.1055C40.9843 31.0238 42.5381 26.7322 42.916 18.4346C42.9748 17.242 43 13.9078 42.9832 10.2461C42.958 4.50996 42.9496 4.04805 42.8068 3.7709C42.6052 3.37617 42.2105 2.97305 41.7906 2.74629L41.4463 2.56152L34.1816 2.56152C28.2439 2.56152 26.8582 2.58672 26.5894 2.6791C26.1779 2.82188 25.6572 3.29219 25.422 3.72891L25.2373 4.07324L25.2121 11.2455C25.1869 19.1316 25.1785 18.9553 25.6992 19.5852C25.8336 19.7531 26.1443 19.9883 26.3879 20.1059L26.8246 20.3242L30.2931 20.3242L33.7617 20.3242L33.7617 20.9373C33.7617 22.2811 33.4342 24.1707 32.9638 25.5816C31.8972 28.773 30.0412 30.7887 26.539 32.5439C25.8588 32.8883 25.1953 33.2746 25.0441 33.4342C24.6578 33.8289 24.4982 34.316 24.5402 34.9543C24.5738 35.4246 24.6914 35.727 25.5732 37.5662C26.6062 39.7246 26.7994 40.0186 27.4125 40.2705C27.7904 40.4301 28.3783 40.4805 28.7646 40.3881Z" fill="#3F4246"/>
<path d="M4.87012 40.1193C10.5223 37.6502 14.8307 33.451 16.7371 28.5547C17.283 27.1606 17.7701 25.0357 18.0473 22.8438C18.4 20.0975 18.4336 19.0645 18.4336 11.4219C18.4336 4.37559 18.4252 4.05645 18.274 3.7541C18.0725 3.34258 17.7113 2.98145 17.2662 2.74629L16.9219 2.56152L9.61524 2.56152C2.36738 2.56152 2.3086 2.56152 1.93067 2.73789C1.47715 2.94785 1.14121 3.27539 0.889259 3.73731C0.712893 4.07324 0.712893 4.09004 0.687697 11.2455C0.662502 19.1316 0.654104 18.9553 1.17481 19.5852C1.30918 19.7531 1.61992 19.9883 1.86348 20.1059L2.3002 20.3242L5.81074 20.3242C9.22891 20.3242 9.32129 20.3242 9.32129 20.4838C9.32129 21.1137 9.10293 22.9697 8.93496 23.8096C8.67461 25.1029 8.39746 25.9344 7.85157 27.085C6.69258 29.5205 4.92891 31.1582 1.93067 32.6027C0.385356 33.3418 0.0494183 33.7365 0.0410204 34.8115C0.0410204 35.391 0.0578165 35.4246 1.00684 37.3982C1.53594 38.49 2.08184 39.5315 2.21621 39.6994C2.8125 40.4217 3.81192 40.5813 4.87012 40.1193Z" fill="#3F4246"/>
</g>
<defs>
<clipPath id="clip0_413_4480">
<rect width="43" height="43" fill="white" transform="translate(43 43) rotate(180)"/>
</clipPath>
</defs>
</svg>
