<svg width="14" height="14" viewBox="0 0 14 14" fill="none" xmlns="http://www.w3.org/2000/svg">
<g clip-path="url(#clip0_231_15)">
<path d="M6.37089 0.0410233C4.18886 0.308991 2.41152 1.92227 1.93027 4.07696C1.64042 5.37305 1.87558 6.79219 2.55917 7.88868C2.63574 8.00899 3.54082 9.30508 4.57441 10.7652C5.608 12.2281 6.45293 13.4313 6.45293 13.4395C6.45293 13.4477 5.64082 13.4531 4.64824 13.4531C3.13613 13.4531 2.82714 13.4586 2.76425 13.4914C2.58378 13.5871 2.58378 13.866 2.76425 13.9617C2.8791 14.0191 11.1205 14.0191 11.2353 13.9617C11.4158 13.866 11.4158 13.5871 11.2353 13.4914C11.1725 13.4586 10.8635 13.4531 9.35136 13.4531C8.35878 13.4531 7.54667 13.4477 7.54667 13.4395C7.54667 13.4313 7.83925 13.0102 8.19746 12.5016C9.04511 11.3012 8.99589 11.3805 8.99589 11.2629C8.99589 11.1481 8.90293 11.0332 8.79082 11.0031C8.62402 10.9621 8.58027 11.0141 7.78183 12.1434C7.36347 12.7367 7.01347 13.2207 6.9998 13.2207C6.98886 13.2207 6.08925 11.9656 5.00644 10.4316C3.39042 8.14298 3.00488 7.57969 2.85996 7.30079C2.32128 6.24259 2.20917 5.03673 2.54003 3.89649C3.03769 2.19571 4.4705 0.916023 6.2205 0.615242C6.9916 0.481257 7.8666 0.563289 8.59941 0.833992C11.2244 1.80743 12.4084 4.84805 11.126 7.32813C11.0248 7.52501 10.7623 7.92696 10.4314 8.3918C10.1416 8.80469 9.8955 9.1711 9.88457 9.20665C9.85175 9.34063 9.95292 9.49923 10.0924 9.5293C10.2564 9.56485 10.3193 9.50196 10.8662 8.7254C11.1506 8.32071 11.4486 7.87501 11.5279 7.73555C12.2498 6.47774 12.3893 4.88907 11.9053 3.49454C11.1014 1.18673 8.79082 -0.257024 6.37089 0.0410233Z" fill="#FB1B1D"/>
<path d="M6.50723 2.78633C5.58027 2.98867 4.86387 3.66953 4.61777 4.58008C4.56855 4.75782 4.55762 4.87266 4.55762 5.19532C4.55762 5.51797 4.56855 5.63282 4.61777 5.81055C4.8584 6.69649 5.54746 7.36915 6.44434 7.59337C6.72598 7.66446 7.32754 7.65626 7.61465 7.57696C8.48144 7.34454 9.1459 6.67735 9.38105 5.81055C9.43027 5.63282 9.44121 5.51797 9.44121 5.19532C9.44121 4.87266 9.43027 4.75782 9.38105 4.58008C9.1459 3.71328 8.47051 3.03789 7.61465 2.81367C7.29746 2.73164 6.81074 2.71797 6.50723 2.78633ZM7.36309 3.31953C7.94277 3.43164 8.44316 3.81719 8.70566 4.35313C8.98183 4.91915 8.98183 5.47149 8.70293 6.04297C8.59902 6.25899 8.53887 6.34102 8.34199 6.5379C8.14512 6.73477 8.06309 6.79493 7.84707 6.89883C7.27559 7.17774 6.72324 7.17774 6.15176 6.89883C5.93574 6.79493 5.85371 6.73477 5.65684 6.5379C5.4627 6.34376 5.3998 6.25899 5.29316 6.04297C5.01699 5.47969 5.01699 4.91094 5.29316 4.34766C5.3998 4.13164 5.4627 4.04688 5.65684 3.85274C5.85098 3.6586 5.93574 3.59571 6.15176 3.48907C6.55098 3.29219 6.93652 3.24024 7.36309 3.31953Z" fill="#FB1B1D"/>
<path d="M9.32703 10.0461C9.08915 10.1773 9.19032 10.5547 9.46102 10.5547C9.60047 10.5547 9.73446 10.4207 9.73446 10.284C9.73446 10.0789 9.5075 9.94493 9.32703 10.0461Z" fill="#FB1B1D"/>
</g>
<defs>
<clipPath id="clip0_231_15">
<rect width="14" height="14" fill="white"/>
</clipPath>
</defs>
</svg>
