<svg width="14" height="14" viewBox="0 0 14 14" fill="none" xmlns="http://www.w3.org/2000/svg">
<g clip-path="url(#clip0_234_45)">
<path d="M11.064 8.67237C10.7774 8.37394 10.4317 8.21438 10.0653 8.21438C9.70183 8.21438 9.35317 8.37099 9.05473 8.66942L8.12102 9.60018C8.04419 9.55881 7.96737 9.5204 7.8935 9.48199C7.78713 9.4288 7.68666 9.37857 7.60097 9.32538C6.72636 8.76988 5.93151 8.04596 5.16918 7.10929C4.79983 6.64243 4.55163 6.24944 4.37138 5.85054C4.61368 5.62893 4.83824 5.39846 5.0569 5.17685C5.13963 5.09412 5.22236 5.00843 5.3051 4.92569C5.92561 4.30519 5.92561 3.50148 5.3051 2.88097L4.49844 2.07431C4.40684 1.98272 4.31229 1.88816 4.22364 1.79361C4.04636 1.61041 3.8602 1.4213 3.66814 1.24402C3.38153 0.960356 3.03877 0.809662 2.67829 0.809662C2.3178 0.809662 1.96913 0.960356 1.67365 1.24402C1.6707 1.24697 1.6707 1.24697 1.66775 1.24993L0.663115 2.26342C0.284901 2.64164 0.0692009 3.10258 0.0219242 3.6374C-0.0489909 4.5002 0.205121 5.30391 0.400138 5.82986C0.878815 7.12111 1.59388 8.3178 2.66056 9.60018C3.95476 11.1455 5.51193 12.3659 7.29072 13.2257C7.97032 13.5478 8.87745 13.929 9.89094 13.994C9.95299 13.9969 10.018 13.9999 10.0771 13.9999C10.7597 13.9999 11.3329 13.7546 11.782 13.2671C11.785 13.2612 11.7909 13.2582 11.7938 13.2523C11.9475 13.0662 12.1248 12.8977 12.3109 12.7175C12.438 12.5963 12.568 12.4693 12.695 12.3363C12.9876 12.032 13.1412 11.6774 13.1412 11.314C13.1412 10.9476 12.9846 10.5959 12.6862 10.3005L11.064 8.67237ZM12.1218 11.7838C12.1189 11.7838 12.1189 11.7867 12.1218 11.7838C12.0066 11.9079 11.8884 12.0202 11.7613 12.1443C11.5693 12.3275 11.3742 12.5195 11.1911 12.7352C10.8926 13.0543 10.541 13.205 10.08 13.205C10.0357 13.205 9.98845 13.205 9.94413 13.2021C9.06655 13.1459 8.25103 12.8032 7.63939 12.5107C5.96697 11.701 4.49844 10.5516 3.27811 9.09491C2.27052 7.88049 1.59683 6.75767 1.15066 5.55211C0.87586 4.81637 0.775397 4.24313 0.819719 3.70241C0.849267 3.3567 0.982233 3.07008 1.22748 2.82483L2.23507 1.81725C2.37985 1.68133 2.5335 1.60746 2.6842 1.60746C2.87035 1.60746 3.02104 1.71974 3.1156 1.81429C3.11855 1.81725 3.1215 1.8202 3.12446 1.82316C3.3047 1.99158 3.47608 2.16591 3.65632 2.35207C3.74792 2.44662 3.84247 2.54117 3.93703 2.63868L4.74369 3.44534C5.0569 3.75855 5.0569 4.04812 4.74369 4.36133C4.658 4.44702 4.57526 4.5327 4.48957 4.61544C4.24137 4.86955 4.00499 5.10594 3.74792 5.33641C3.74201 5.34232 3.7361 5.34527 3.73315 5.35118C3.47903 5.6053 3.52631 5.8535 3.5795 6.02192C3.58245 6.03079 3.58541 6.03965 3.58836 6.04851C3.79815 6.55674 4.09363 7.03542 4.54276 7.60569L4.54572 7.60865C5.36124 8.61328 6.22109 9.3963 7.16957 9.99612C7.29072 10.0729 7.41482 10.135 7.53301 10.1941C7.63939 10.2473 7.73985 10.2975 7.82554 10.3507C7.83736 10.3566 7.84918 10.3655 7.861 10.3714C7.96146 10.4216 8.05601 10.4453 8.15352 10.4453C8.39877 10.4453 8.55242 10.2916 8.60265 10.2414L9.61319 9.23083C9.71365 9.13037 9.87321 9.00922 10.0594 9.00922C10.2426 9.00922 10.3933 9.12446 10.4849 9.22492C10.4878 9.22788 10.4878 9.22788 10.4908 9.23083L12.1189 10.8589C12.4232 11.1603 12.4232 11.4706 12.1218 11.7838Z" fill="#FB1B1D"/>
<path d="M7.56565 3.33035C8.3398 3.46036 9.04304 3.82675 9.60446 4.38816C10.1659 4.94958 10.5293 5.65282 10.6623 6.42697C10.6948 6.62199 10.8632 6.75791 11.0553 6.75791C11.0789 6.75791 11.0996 6.75496 11.1232 6.752C11.3419 6.71654 11.4867 6.50971 11.4512 6.29105C11.2916 5.35438 10.8484 4.50045 10.1718 3.8238C9.49513 3.14715 8.64119 2.70393 7.70452 2.54437C7.48587 2.50891 7.28199 2.6537 7.24358 2.8694C7.20516 3.0851 7.34699 3.29489 7.56565 3.33035Z" fill="#FB1B1D"/>
<path d="M13.9835 6.17566C13.7206 4.63326 12.9937 3.22973 11.8768 2.11282C10.7598 0.995907 9.35632 0.269028 7.81392 0.00605089C7.59822 -0.0323614 7.39434 0.115378 7.35592 0.331078C7.32047 0.549733 7.46525 0.753614 7.68391 0.792026C9.06084 1.02546 10.3166 1.67846 11.3154 2.67423C12.3141 3.67295 12.9641 4.92874 13.1976 6.30567C13.2301 6.50069 13.3985 6.63661 13.5905 6.63661C13.6142 6.63661 13.6349 6.63366 13.6585 6.6307C13.8742 6.5982 14.0219 6.39136 13.9835 6.17566Z" fill="#FB1B1D"/>
</g>
<defs>
<clipPath id="clip0_234_45">
<rect width="14" height="14" fill="white"/>
</clipPath>
</defs>
</svg>
