<svg width="70" height="70" viewBox="0 0 70 70" fill="none" xmlns="http://www.w3.org/2000/svg">
<path d="M2.77549 0.24604C1.4083 0.724556 0.437597 1.81831 0.136815 3.19917C0.0274405 3.69135 9.67123e-05 11.9218 0.0274405 31.8554L0.0684561 59.8144L0.355565 60.4433C0.779394 61.3457 1.42197 62.0019 2.29697 62.4394L3.07627 62.8222L11.2794 62.8632C19.8927 62.9042 20.0294 62.8906 20.4396 62.289C20.672 61.9609 20.713 61.2089 20.5079 60.8261C20.1388 60.1562 20.1114 60.1562 11.6896 60.1562C3.14463 60.1562 3.24033 60.1699 2.89853 59.4042C2.77549 59.1308 2.73447 53.6621 2.73447 36.3671V13.6718H35.0001H67.2657V36.3671C67.2657 61.0585 67.3067 59.6367 66.5138 59.9921C66.2677 60.1015 65.0782 60.1562 62.6446 60.1562H59.131L52.172 53.1972L45.1993 46.2246L45.7599 45.0214C50.1485 35.6699 46.2247 24.3769 36.9688 19.6601C35.2462 18.7851 33.8927 18.3066 31.9376 17.8828C29.9552 17.4589 26.3731 17.4589 24.3771 17.8828C16.5841 19.5644 10.8009 25.3339 9.13291 33.1269C8.73643 34.9726 8.70908 38.5546 9.06455 40.4003C9.84385 44.3925 11.6212 47.7148 14.4923 50.5859C17.295 53.4023 20.3985 55.0839 24.3087 55.9453C26.0997 56.3417 29.9688 56.3828 31.7188 56.0136C33.2501 55.6992 35.2188 55.0429 36.4767 54.455L37.4884 53.9628L40.5919 57.0664L43.6817 60.1562H37.4337H31.172L30.7345 60.5527C30.3653 60.8808 30.2833 61.0449 30.2833 61.5234C30.2833 62.0019 30.3653 62.166 30.7345 62.4941L31.172 62.8906H38.7872H46.4024L49.5606 66.0078C52.8556 69.2753 53.2384 69.5625 54.7149 69.8769C56.4103 70.246 58.5567 69.5625 59.7325 68.2773C60.8946 67.0332 61.4962 64.9824 61.1407 63.4785L61.004 62.9042L63.9708 62.8632C66.8829 62.8222 66.9376 62.8222 67.7032 62.4394C68.5782 62.0019 69.2208 61.3457 69.6446 60.4433L69.9317 59.8144V31.4453V3.07612L69.5489 2.29682C69.1114 1.42182 68.4552 0.779243 67.5528 0.355415L66.9239 0.068306L35.2052 0.0409622C5.03135 0.0136185 3.44541 0.0136185 2.77549 0.24604ZM66.5138 2.89838C67.211 3.21284 67.2657 3.51362 67.2657 7.38276V10.9374H35.0001H2.73447V7.34174C2.74814 3.51362 2.77549 3.2812 3.43174 2.92573C3.89658 2.66596 65.9669 2.63862 66.5138 2.89838ZM31.4454 20.5761C38.3907 22.039 43.5997 27.5214 44.6524 34.4531C45.8419 42.4101 41.0978 50.1621 33.4688 52.705C28.3966 54.4003 22.8595 53.58 18.4981 50.5039C17.3087 49.6562 15.422 47.7695 14.5743 46.58C10.8009 41.248 10.4864 34.1796 13.7403 28.5742C16.2149 24.3496 20.6173 21.2597 25.2247 20.5214C25.7579 20.4394 26.3321 20.3437 26.5235 20.3164C27.2208 20.1933 30.461 20.3574 31.4454 20.5761ZM44.338 53.0742L42.3829 55.0292L41.0978 53.7441L39.8126 52.4589L40.5919 51.8164C41.5216 51.0507 43.6134 48.8222 43.6134 48.6171C43.6134 48.5351 44.2149 49.0683 44.9396 49.8066L46.2794 51.1328L44.338 53.0742ZM53.2794 58.1328C58.4064 63.2871 58.5157 63.4101 58.5157 64.5175C58.5157 66.4726 56.3692 67.8398 54.6329 66.9921C54.2774 66.8281 52.336 64.9824 49.2189 61.8652L44.3653 57.0117L46.2794 55.0976C47.3321 54.0449 48.2208 53.1835 48.2618 53.1835C48.3028 53.1835 50.5587 55.4121 53.2794 58.1328Z" fill="#FF3E1D"/>
<path d="M8.08 5.66016C6.89055 6.31641 7.39641 8.20312 8.74992 8.20312C9.44719 8.20312 10.1171 7.5332 10.1171 6.84961C10.1171 5.82422 8.98235 5.1543 8.08 5.66016Z" fill="#FF3E1D"/>
<path d="M14.0956 5.66016C12.9062 6.31641 13.412 8.20312 14.7655 8.20312C15.4628 8.20312 16.1327 7.5332 16.1327 6.84961C16.1327 5.82422 14.998 5.1543 14.0956 5.66016Z" fill="#FF3E1D"/>
<path d="M20.1113 5.66016C18.9218 6.31641 19.4277 8.20312 20.7812 8.20312C21.4784 8.20312 22.1484 7.5332 22.1484 6.84961C22.1484 5.82422 21.0136 5.1543 20.1113 5.66016Z" fill="#FF3E1D"/>
<path d="M31.0492 5.66016C30.1332 6.16602 30.1605 7.61523 31.1039 8.03906C31.3773 8.16211 35.1234 8.20312 46.4984 8.20312C59.2406 8.20312 61.5921 8.17578 61.9203 8.01172C62.8226 7.5332 62.8226 6.13867 61.9203 5.66016C61.3734 5.38672 31.555 5.37305 31.0492 5.66016Z" fill="#FF3E1D"/>
<path d="M25.8947 23.1601C20.1936 24.2538 15.9963 28.1776 14.6018 33.7284C14.1506 35.5331 14.1779 38.5136 14.6564 40.3456C16.5568 47.4276 23.2834 51.8163 30.4201 50.6542C38.4592 49.3554 43.6682 41.371 41.6447 33.4823C40.3869 28.5468 36.5588 24.705 31.6369 23.4335C29.9689 22.996 27.3713 22.8729 25.8947 23.1601ZM30.4338 25.9628C32.6076 26.414 34.6174 27.5214 36.176 29.1483C37.1877 30.1874 37.7482 31.0077 38.3498 32.3065C39.1154 33.9608 39.2932 34.8495 39.2932 36.914C39.2932 39.1288 39.0197 40.2772 38.0354 42.1776C37.5158 43.1757 37.133 43.6679 36.0256 44.789C34.8908 45.9237 34.4396 46.2655 33.4143 46.7987C31.4865 47.7831 30.3654 48.0429 28.1643 48.0429C26.0998 48.0429 25.2111 47.8651 23.5705 47.0995C21.1779 46.0058 19.3186 44.2147 18.1975 41.9452C17.3635 40.2226 17.1037 39.3065 17.008 37.5292C16.6252 31.2128 21.7248 25.7851 28.0959 25.7167C28.6975 25.7167 29.7502 25.8261 30.4338 25.9628Z" fill="#FF3E1D"/>
<path d="M27.262 30.2695C26.7562 30.7754 26.6741 31.2266 26.9886 31.8418C27.1937 32.2246 27.7132 32.5391 28.1644 32.5391C28.8616 32.5391 29.5316 31.8691 29.5316 31.1855C29.5316 30.7207 29.2171 30.2012 28.8343 29.9961C28.2191 29.6816 27.7679 29.7637 27.262 30.2695Z" fill="#FF3E1D"/>
<path d="M27.4534 36.1894C27.262 36.3124 27.0296 36.5585 26.9476 36.7362C26.7015 37.2558 26.7425 42.8476 26.9886 43.3261C27.3167 43.955 28.0823 44.1737 28.7796 43.8593C29.4632 43.5448 29.5316 43.203 29.5316 40.0038C29.5316 36.8183 29.4632 36.4901 28.8343 36.1484C28.3421 35.9023 27.9046 35.9159 27.4534 36.1894Z" fill="#FF3E1D"/>
<path d="M47.4141 19.9062C46.6759 20.3027 46.5118 21.3008 47.086 21.9707L47.4141 22.3535H49.4923H51.5704L51.8985 21.9707C52.254 21.5605 52.336 20.8359 52.0899 20.3574C51.8028 19.8242 51.2423 19.6875 49.4649 19.6875C48.2481 19.7012 47.6739 19.7559 47.4141 19.9062Z" fill="#FF3E1D"/>
<path d="M56.0273 20.084C55.6582 20.4121 55.5762 20.5762 55.5762 21.0547C55.5762 21.5332 55.6582 21.6973 56.0273 22.0254L56.4648 22.4219H58.9941C61.7285 22.4219 62.0977 22.3398 62.4258 21.7246C62.6719 21.2188 62.6719 20.8359 62.3848 20.3711C62.0293 19.7559 61.7012 19.6875 58.9941 19.6875H56.4648L56.0273 20.084Z" fill="#FF3E1D"/>
<path d="M50.0117 26.6465C49.6426 26.9746 49.5605 27.1387 49.5605 27.6172C49.5605 28.0957 49.6426 28.2598 50.0117 28.5879L50.4492 28.9844H56C60.5254 28.9844 61.6055 28.9434 61.9199 28.793C62.8223 28.3145 62.8223 26.9199 61.9199 26.4414C61.6055 26.291 60.5254 26.25 56 26.25H50.4492L50.0117 26.6465Z" fill="#FF3E1D"/>
<path d="M56.9844 33.209C56.6152 33.5371 56.5332 33.7012 56.5332 34.1797C56.5332 34.6582 56.6152 34.8223 56.9844 35.1504L57.4219 35.5469H59.4727C61.7012 35.5469 62.1113 35.4512 62.4258 34.8496C62.7949 34.1387 62.5352 33.2773 61.8652 32.9766C61.6465 32.8672 60.7578 32.8125 59.4727 32.8125H57.4219L56.9844 33.209Z" fill="#FF3E1D"/>
<path d="M24.582 60.5528C24.2129 60.881 24.1309 61.045 24.1309 61.5235C24.1309 62.0021 24.2129 62.1661 24.582 62.4942C25.0742 62.9317 25.5254 62.9864 26.1133 62.6857C26.5918 62.4396 26.7969 62.0978 26.7969 61.5235C26.7969 60.9493 26.5918 60.6075 26.1133 60.3614C25.5254 60.0607 25.0742 60.1153 24.582 60.5528Z" fill="#FF3E1D"/>
</svg>
