<svg width="60" height="60" viewBox="0 0 60 60" fill="none" xmlns="http://www.w3.org/2000/svg">
<path d="M18.2109 3.98425C18.0703 4.03112 17.8477 4.23034 17.707 4.40612C17.4727 4.69909 17.4609 4.85143 17.4609 6.80846V8.90612L17.8008 9.28112C18.0938 9.62096 18.2109 9.65612 18.9023 9.70299L19.6758 9.74987L19.7109 17.953L19.7461 26.1561L20.0273 26.3788C20.3789 26.6717 20.918 26.66 21.2109 26.3671C21.4453 26.1327 21.4453 25.9803 21.4453 17.9296V9.72643H38.2031H54.9609L54.9844 22.9803L55.0195 36.2342L55.3477 36.5155C55.7461 36.8553 56.0039 36.8671 56.4141 36.5507L56.7188 36.3163V23.0155V9.72643H57.3047C58.0195 9.72643 58.6055 9.50377 58.875 9.12877C59.0273 8.8944 59.0625 8.50768 59.0625 6.77331V4.68737L58.7227 4.31237L58.3828 3.92565L38.4141 3.90221C27.4336 3.8905 18.3398 3.92565 18.2109 3.98425ZM57.3047 6.79674V7.96862H38.2617H19.2188V6.79674V5.62487H38.2617H57.3047V6.79674Z" fill="#FF3E1D"/>
<path d="M24.668 12.4452C24.3516 12.7499 24.082 13.3007 23.3672 15.0937L22.4766 17.3437L22.5234 18.6093C22.5586 19.6523 22.6172 19.9687 22.8633 20.5077C23.2148 21.2694 23.9766 22.0546 24.6211 22.3476L25.0781 22.5468V25.746V28.9452H22.0312C20.3672 28.9452 18.4453 29.0038 17.7891 29.0741C14.8828 29.3905 12.5508 30.4804 10.1367 32.6484C8.14453 34.4296 6.52734 35.2968 4.19531 35.8124C3.46875 35.9765 2.60156 36.2343 2.27344 36.3749C1.53516 36.7148 0.785156 37.4765 0.375 38.3202L0.0585938 38.9648V43.4765C0.0585938 47.5194 0.0820312 48.0234 0.257812 48.3515C0.644531 49.0663 1.14844 49.4179 2.83594 50.1679C5.35547 51.3046 5.17969 51.1874 5.33203 51.8788C5.75391 53.789 7.26562 55.371 9.24609 55.9687C9.96094 56.1796 11.3555 56.1796 12.1406 55.9452C13.9805 55.4179 15.5039 53.8827 15.9375 52.1249L16.0781 51.5624H29.9414H43.8047L43.9336 52.1132C44.2617 53.414 45.3281 54.7734 46.582 55.4765C47.7656 56.1327 49.4648 56.3202 50.7539 55.9452C52.5352 55.4179 54.0586 53.8593 54.5039 52.1015L54.6328 51.5624H55.9688C57.6562 51.5624 58.3359 51.3398 59.0859 50.5312C59.9414 49.6171 60.0234 49.1952 59.9766 46.2538C59.918 43.3944 59.8477 43.0898 58.8164 41.5429C58.0781 40.4413 57.2578 39.7148 56.0742 39.1288C55.2305 38.7069 54.7148 38.5898 50.7422 37.7929C48.3281 37.3124 46.0898 36.8319 45.7617 36.7265C44.6133 36.3398 43.4883 35.6835 40.1016 33.4218L36.6562 31.1132L43.2656 31.0546C49.207 30.996 49.8984 30.9726 50.2266 30.7968C50.7305 30.5273 51.1758 29.9648 51.3281 29.4374C51.3984 29.1913 51.4453 27.6093 51.4453 25.6991V22.3827L51.9141 22.078C52.4297 21.7265 52.8164 21.2812 53.2031 20.5077C53.4258 20.0741 53.4844 19.746 53.5312 18.6562L53.5898 17.3319L52.6875 15.0585C51.9375 13.1835 51.7148 12.7265 51.375 12.4335L50.9648 12.0702H38.0273H25.0781L24.668 12.4452ZM50.7539 14.9765C51 15.5741 51.2344 16.1718 51.2695 16.3007C51.3398 16.5234 51.1641 16.5234 38.0391 16.5234C30.7148 16.5234 24.7266 16.4999 24.7266 16.4648C24.7266 16.3944 25.6641 14.039 25.7344 13.9218C25.7695 13.8632 31.3125 13.8398 38.0508 13.8515L50.3203 13.8866L50.7539 14.9765ZM28.3594 18.8319C28.3594 20.0507 27.4805 20.9765 26.3203 20.9765C25.125 20.9765 24.2578 20.0624 24.2578 18.7968V18.2812H26.3086H28.3594V18.8319ZM34.1953 18.9726C34.1367 19.828 33.7734 20.414 33.0938 20.7421C31.6641 21.4452 30.1172 20.4491 30.1172 18.8085V18.2812H32.1797H34.2422L34.1953 18.9726ZM40.0547 18.9726C39.9961 19.828 39.6328 20.414 38.9531 20.7421C37.5234 21.4452 35.9766 20.4491 35.9766 18.8085V18.2812H38.0391H40.1016L40.0547 18.9726ZM45.9375 18.7968C45.9375 19.453 45.7734 19.8866 45.375 20.3202C44.0625 21.7148 41.8359 20.7655 41.8359 18.8085V18.2812H43.8867H45.9375V18.7968ZM51.7969 18.7968C51.7969 19.453 51.6328 19.8866 51.2344 20.3085C50.8008 20.7773 50.3672 20.9765 49.8164 20.9765C48.5859 20.9765 47.6953 20.0741 47.6953 18.8085V18.2812H49.7461H51.7969V18.7968ZM29.6602 21.7499C30.1523 22.289 31.0312 22.6523 31.9688 22.7109C32.9883 22.7812 33.6328 22.5702 34.5469 21.8788L35.168 21.4101L35.543 21.7616C36.1523 22.3476 36.8789 22.6523 37.8281 22.7109C38.8125 22.7694 39.5039 22.5702 40.2539 21.996C40.5117 21.7968 40.7812 21.5976 40.8516 21.539C40.9336 21.4804 41.1914 21.6093 41.543 21.9023C42.8203 22.9569 44.7773 23.0273 46.043 22.0429C46.8867 21.3866 46.793 21.3984 47.3906 21.8905C47.9414 22.3476 48.8672 22.7343 49.4062 22.7343H49.6875V25.7929C49.6875 27.6679 49.6406 28.9335 49.5703 29.0741C49.4531 29.2968 49.2305 29.2968 40.8047 29.2968C35.5547 29.2968 31.9805 29.2499 31.6992 29.1796C31.4414 29.1093 30.2461 29.0273 29.0391 28.9804L26.8359 28.9101V25.828V22.7577L27.4688 22.5585C27.8086 22.453 28.3477 22.1601 28.6641 21.914C28.9805 21.6679 29.2734 21.4569 29.3086 21.4569C29.3438 21.4452 29.4961 21.5859 29.6602 21.7499ZM30.6445 30.8202C33.1992 31.0898 34.0547 31.4882 38.7656 34.6523C42.5742 37.2069 44.1562 38.1093 45.4688 38.4726C45.8203 38.578 48 39.0351 50.3086 39.4921C54.5625 40.3359 54.9844 40.453 55.8047 40.9687L56.2734 41.2616L55.6641 41.5663C54.6094 42.0937 54.1523 42.9491 54.1406 44.4491C54.1406 45.5507 54.3398 46.078 54.8672 46.4062C55.207 46.6054 55.4531 46.6405 56.7539 46.6405H58.2422V47.6601C58.2422 49.4296 57.8203 49.8046 55.8633 49.8046H54.6328L54.5039 49.2655C54.1758 47.9999 53.3203 46.828 52.1602 46.078C50.5195 45.0234 48.2812 44.953 46.582 45.8905C45.3281 46.5937 44.2617 47.953 43.9336 49.2538L43.8047 49.8046H29.9414H16.0781L15.9375 49.2421C15.6094 47.9296 14.5664 46.6054 13.3008 45.9023C11.2734 44.7655 8.74219 45.0819 6.9375 46.6991C6.33984 47.2382 5.60156 48.3866 5.44922 49.0194C5.40234 49.1952 5.34375 49.3359 5.32031 49.3359C5.12109 49.3359 2.01562 47.871 1.89844 47.7187C1.82812 47.6249 1.75781 47.3437 1.75781 47.0976V46.6757L2.74219 46.6171C4.42969 46.5351 4.6875 46.1718 4.6875 43.9335C4.6875 41.7304 4.40625 41.3671 2.69531 41.3671H1.75781V40.453C1.76953 38.8944 2.41406 37.9921 3.71484 37.7343C6.85547 37.1132 8.82422 36.164 10.9805 34.2421C12.4336 32.953 13.125 32.4491 14.1328 31.9452C15.5156 31.2773 16.6992 30.9374 18.2812 30.7851C19.2422 30.6796 29.6836 30.7148 30.6445 30.8202ZM57.9141 43.4765C58.0195 43.6991 58.1484 44.1093 58.1953 44.3788L58.2773 44.8827H57.082H55.8984V44.3554C55.8984 43.371 56.2852 42.996 57.2461 43.0429C57.6562 43.0663 57.7383 43.1132 57.9141 43.4765ZM2.92969 44.0038V44.8827H2.34375H1.75781V44.0038V43.1249H2.34375H2.92969V44.0038ZM11.9531 47.2148C12.7617 47.5194 13.2891 47.953 13.7695 48.6679C15.3398 51.0702 13.7695 54.1874 10.8984 54.3515C9.29297 54.4452 8.0625 53.7304 7.35938 52.3007C7.04297 51.6444 6.98438 51.3984 6.98438 50.6835C6.98438 48.1054 9.5625 46.3124 11.9531 47.2148ZM50.8242 47.3202C52.3945 48.1288 53.2148 49.7812 52.8633 51.4101C52.4766 53.1562 51.2109 54.246 49.4531 54.3515C47.8477 54.4452 46.6172 53.7304 45.9141 52.3007C45.5977 51.6444 45.5391 51.3984 45.5391 50.6835C45.5391 49.1484 46.4531 47.8007 47.8945 47.2148C48.668 46.9101 50.1211 46.9569 50.8242 47.3202Z" fill="#FF3E1D"/>
<path d="M18.2814 31.9922C15.7502 32.2383 13.8752 33.1054 11.7541 35.0508C11.2033 35.5664 10.2658 36.3047 9.67989 36.7031C8.47286 37.5117 8.25021 37.7461 8.14474 38.2968C7.98067 39.1758 8.81271 40.5586 9.87911 41.1914C10.7229 41.6719 11.5315 41.7304 16.758 41.6953C21.176 41.6601 21.6447 41.6367 21.926 41.4492C22.09 41.3437 22.2893 41.1094 22.3596 40.9453C22.5471 40.5586 22.5588 33.2343 22.3713 32.7187C22.1604 32.1093 21.7736 31.957 20.4494 31.9218C19.8049 31.9101 18.8322 31.9336 18.2814 31.9922ZM20.7424 36.8672V39.9726L15.9729 39.9375C11.7072 39.9023 11.1565 39.8789 10.8166 39.7031C10.4299 39.4804 9.96114 38.9648 9.96114 38.7422C9.97286 38.6718 10.3713 38.3437 10.8752 38.0039C11.3674 37.6758 12.258 36.9726 12.8322 36.4453C15.1174 34.3828 16.594 33.7734 19.3127 33.7617L20.7424 33.75V36.8672Z" fill="#FF3E1D"/>
<path d="M25.0547 31.9453C24.5391 32.039 24.1641 32.5195 24.082 33.1992C24.0352 33.539 24.0234 35.3906 24.0469 37.3242C24.082 41.3203 24.0938 41.3671 24.9492 41.6015C25.2656 41.6835 28.1836 41.7187 33.9492 41.6953C43.3242 41.6601 42.8203 41.6953 43.1836 40.9453C43.4297 40.4179 43.4062 39.9726 43.0664 39.2929C42.7852 38.7304 42.6094 38.6015 38.8125 36.0703C33.9492 32.8242 33.6797 32.6718 31.8164 32.2148C31.0547 32.0273 30.3633 31.9687 28.125 31.9336C26.6133 31.9101 25.2305 31.9218 25.0547 31.9453ZM31.4883 33.9375C32.8008 34.2421 33.7617 34.7695 37.5586 37.3242C39.5625 38.6601 41.2383 39.7968 41.3086 39.8554C41.3672 39.914 38.1914 39.9609 33.6562 39.9609H25.8984V36.8554V33.75H28.2891C30.0586 33.75 30.9023 33.7968 31.4883 33.9375Z" fill="#FF3E1D"/>
<path d="M24.5743 43.9218C24.293 44.2265 24.3165 44.9179 24.6094 45.1758C24.7969 45.3515 25.1016 45.4101 25.8985 45.4453C27.1407 45.5039 27.7032 45.4219 28.0196 45.1054C28.3126 44.8125 28.3008 44.2968 28.0079 43.9687C27.7852 43.7343 27.6563 43.7109 26.2618 43.7109C24.961 43.7109 24.7384 43.7343 24.5743 43.9218Z" fill="#FF3E1D"/>
<path d="M9.78516 47.9531C8.61328 48.3632 7.85156 49.4296 7.85156 50.6835C7.85156 51.5156 8.12109 52.1601 8.67188 52.6991C10.4883 54.4687 13.4883 53.2148 13.4883 50.6835C13.4883 48.7617 11.5547 47.332 9.78516 47.9531ZM11.3789 49.8984C11.6719 50.1562 11.7422 50.3202 11.7422 50.6835C11.7422 51.0468 11.6719 51.2109 11.3789 51.4687C10.9102 51.8906 10.4414 51.8906 9.97266 51.4921C9.69141 51.2577 9.60938 51.0937 9.60938 50.7538C9.60938 49.7226 10.6289 49.2304 11.3789 49.8984Z" fill="#FF3E1D"/>
<path d="M48.3398 47.9531C47.168 48.3632 46.4062 49.4296 46.4062 50.6835C46.4062 51.5156 46.6758 52.1601 47.2266 52.6991C49.043 54.4687 52.043 53.2148 52.043 50.6835C52.043 48.7617 50.1094 47.332 48.3398 47.9531ZM49.9336 49.8984C50.2266 50.1562 50.2969 50.3202 50.2969 50.6835C50.2969 51.0468 50.2266 51.2109 49.9336 51.4687C49.4648 51.8906 48.9961 51.8906 48.5273 51.4921C48.2461 51.2577 48.1641 51.0937 48.1641 50.7538C48.1641 49.7226 49.1836 49.2304 49.9336 49.8984Z" fill="#FF3E1D"/>
</svg>
