<svg width="14" height="14" viewBox="0 0 14 14" fill="none" xmlns="http://www.w3.org/2000/svg">
<path d="M6.61719 0.648041C5.78047 0.705463 4.91641 0.932416 4.23828 1.27148C3.97578 1.40273 3.9375 1.43828 3.9375 1.54765C3.9375 1.65156 4.025 1.74999 4.11523 1.74999C4.14805 1.74999 4.29844 1.69257 4.44609 1.62421C4.80703 1.45468 5.16523 1.32617 5.54805 1.23046C5.86523 1.15117 6.40117 1.06093 6.42305 1.08281C6.43125 1.09101 6.36289 1.17304 6.27266 1.26601C5.8625 1.6871 5.32109 2.41171 4.98477 2.98593L4.92461 3.08984H3.73242C3.07891 3.08984 2.54297 3.0789 2.54297 3.06796C2.54297 3.03788 3.09531 2.50195 3.28125 2.35156C3.36328 2.2832 3.44531 2.20937 3.46445 2.18749C3.55469 2.07538 3.44805 1.88671 3.29492 1.88671C3.21836 1.88671 3.15547 1.92499 2.95859 2.08906C2.25312 2.67695 1.70898 3.36327 1.30156 4.18359C1.19492 4.40234 1.06641 4.70038 1.01445 4.84531L0.924219 5.11054L0.790234 5.13788C0.486719 5.20351 0.221484 5.41679 0.0929687 5.6957L0.0136719 5.86523V6.99999V8.13476L0.0929687 8.30429C0.221484 8.5832 0.486719 8.79648 0.790234 8.8621L0.924219 8.88945L1.01445 9.15468C1.29062 9.95859 1.85664 10.8473 2.50469 11.498C4.44062 13.434 7.39375 13.9125 9.84375 12.6875C10.2348 12.4934 10.3086 12.4332 10.3086 12.3211C10.3086 12.2199 10.2156 12.1133 10.1254 12.1133C10.0953 12.1133 9.90664 12.198 9.7043 12.2992C9.29414 12.5098 8.84844 12.6738 8.42188 12.7777C8.13203 12.8488 7.59609 12.9363 7.57695 12.9172C7.57148 12.9117 7.65352 12.8133 7.76289 12.7012C8.12656 12.3156 8.72539 11.509 9.01523 11.0141L9.07539 10.9102H10.2676C10.9238 10.9102 11.457 10.9211 11.457 10.9348C11.457 10.9457 11.2902 11.118 11.0879 11.3148C10.6914 11.7004 10.6695 11.7414 10.7762 11.8781C10.8965 12.0312 11.0551 11.9465 11.5172 11.4762C11.807 11.1863 12.1023 10.8226 12.332 10.4727C12.5453 10.15 12.8625 9.50468 12.9828 9.15468L13.0758 8.88945L13.2098 8.8621C13.5188 8.79374 13.773 8.5914 13.9098 8.29882L13.9863 8.13476V6.99999V5.86523L13.9098 5.70117C13.773 5.40859 13.5188 5.20624 13.2098 5.13788L13.0758 5.11054L12.9855 4.84531C12.8598 4.48437 12.5426 3.84726 12.3102 3.49999C11.3148 2.01249 9.79453 1.01718 8.06641 0.727338C7.59336 0.648041 7.04102 0.617963 6.61719 0.648041ZM7.83398 1.10742C8.10469 1.13476 8.59688 1.25507 8.93594 1.37265C9.52109 1.57226 10.0871 1.87304 10.6012 2.25859C10.8199 2.42538 11.457 3.02421 11.457 3.06523C11.457 3.0789 10.9211 3.08984 10.2676 3.08984H9.07539L9.01523 2.98593C8.72812 2.49374 8.1293 1.68437 7.76562 1.30429C7.56602 1.09374 7.54141 1.05273 7.62344 1.07734C7.64805 1.08281 7.74375 1.09648 7.83398 1.10742ZM7.33086 1.44374C7.50312 1.62148 7.73828 1.88398 7.85313 2.0289C8.05 2.27226 8.58594 3.03788 8.58594 3.07343C8.58594 3.08163 7.87227 3.08984 7 3.08984C6.12773 3.08984 5.41406 3.08163 5.41406 3.07343C5.41406 3.03788 5.95 2.27226 6.14687 2.0289C6.36562 1.7582 6.96172 1.12109 7 1.12109C7.01094 1.12109 7.16133 1.26601 7.33086 1.44374ZM4.52539 3.86093C4.3668 4.19726 4.1043 4.85898 4.06055 5.03671L4.04141 5.11327H2.70156H1.36172L1.38086 5.03671C1.44648 4.77421 1.87031 3.93476 2.09453 3.62851L2.1875 3.49999H3.44258H4.70039L4.52539 3.86093ZM8.98516 3.7871C9.13555 4.08788 9.32969 4.53632 9.4582 4.88632L9.54023 5.11327H7H4.45977L4.53633 4.89999C4.72227 4.40234 4.95742 3.8664 5.10234 3.62031L5.17344 3.49999L7.0082 3.50546L8.8457 3.51367L8.98516 3.7871ZM11.9547 3.70507C12.1488 3.99492 12.3703 4.40781 12.507 4.7496C12.5754 4.9164 12.6328 5.06952 12.6328 5.0832C12.6328 5.10507 12.2199 5.11327 11.2957 5.11327H9.95859L9.93945 5.03671C9.8957 4.85898 9.6332 4.19726 9.47461 3.86093L9.29961 3.49999L10.5629 3.50546L11.8262 3.51367L11.9547 3.70507ZM13.1934 5.55351C13.3355 5.59452 13.5188 5.77773 13.5598 5.91992C13.6008 6.06757 13.6008 7.92968 13.5598 8.08007C13.5215 8.21679 13.3301 8.4082 13.1879 8.44648C13.043 8.48749 0.957031 8.48749 0.812109 8.44648C0.678125 8.41093 0.525 8.27421 0.462109 8.13476C0.415625 8.03632 0.410156 7.93242 0.410156 6.99999C0.410156 5.86523 0.412891 5.84882 0.596094 5.67929C0.768359 5.51523 0.352734 5.52617 6.98633 5.52343C11.3723 5.52343 13.1141 5.53163 13.1934 5.55351ZM4.06055 8.96054C4.1043 9.14101 4.3668 9.80273 4.52539 10.1391L4.70039 10.5L3.43711 10.4945L2.17383 10.4863L2.04531 10.2949C1.85117 10.0051 1.62969 9.59218 1.49297 9.25038C1.42461 9.08359 1.36719 8.93046 1.36719 8.91679C1.36719 8.89492 1.78008 8.88671 2.7043 8.88671H4.04141L4.06055 8.96054ZM9.4582 9.11093C9.32969 9.46367 9.13555 9.9121 8.98516 10.2129L8.8457 10.4863H7H5.1543L4.98477 10.1445C4.83437 9.84648 4.61289 9.32148 4.49805 8.99335L4.45977 8.88671H7H9.54023L9.4582 9.11093ZM12.6328 8.91953C12.6328 8.98242 12.4004 9.52929 12.2719 9.76718C12.2035 9.8957 12.075 10.1117 11.9875 10.2512L11.8262 10.5H10.5629H9.29961L9.46094 10.1637C9.62773 9.81367 9.83281 9.31054 9.91484 9.04257L9.96406 8.88671H11.2984C12.3484 8.88671 12.6328 8.89492 12.6328 8.91953ZM4.98477 11.0113C5.32109 11.5883 5.8625 12.3129 6.27266 12.734C6.36289 12.8269 6.43125 12.909 6.42305 12.9172C6.41758 12.9226 6.29453 12.9117 6.15234 12.8898C5.14609 12.7449 4.22734 12.3594 3.39883 11.7414C3.18008 11.5746 2.54297 10.9758 2.54297 10.9348C2.54297 10.9211 3.07891 10.9102 3.73242 10.9102H4.92461L4.98477 11.0113ZM8.58594 10.9266C8.58594 10.9621 8.05 11.7277 7.85313 11.9711C7.73828 12.116 7.49766 12.3812 7.32266 12.5644L7 12.8926L6.68008 12.5644C6.50234 12.3812 6.26172 12.116 6.14687 11.9711C5.95 11.7277 5.41406 10.9621 5.41406 10.9266C5.41406 10.9184 6.12773 10.9102 7 10.9102C7.87227 10.9102 8.58594 10.9184 8.58594 10.9266Z" fill="#FB1B1D"/>
<path d="M2.69336 6.08398C2.65508 6.11953 2.625 6.17695 2.625 6.2125C2.625 6.24805 2.75898 6.63633 2.92031 7.0793C3.1582 7.73008 3.22656 7.89414 3.28672 7.93789C3.36328 7.99531 3.46445 7.98711 3.53555 7.91875C3.55469 7.89687 3.65859 7.64531 3.7625 7.36094C3.86641 7.07383 3.95391 6.84414 3.95938 6.84961C3.96484 6.85508 4.05508 7.09023 4.15899 7.37461C4.35039 7.89961 4.39961 7.98438 4.52539 7.98438C4.65391 7.98438 4.69766 7.90234 5.00391 7.05469C5.26914 6.32461 5.30195 6.21523 5.27734 6.14961C5.26094 6.11133 5.21445 6.06484 5.17891 6.0457C4.99297 5.96094 4.93555 6.0375 4.7168 6.64453C4.61563 6.92344 4.53086 7.15312 4.52813 7.15859C4.52266 7.16133 4.43789 6.93437 4.33399 6.65273C4.14258 6.11953 4.07969 6.01562 3.95391 6.01562C3.83086 6.01562 3.78164 6.10312 3.59297 6.62265C3.4918 6.90703 3.40156 7.13672 3.39336 7.13672C3.38516 7.13672 3.29219 6.90156 3.18828 6.61719C3.0625 6.26719 2.98047 6.08125 2.94219 6.05664C2.86016 5.99648 2.76719 6.00742 2.69336 6.08398Z" fill="#FB1B1D"/>
<path d="M5.72852 6.08398C5.69023 6.11953 5.66016 6.17148 5.66016 6.19883C5.66016 6.22617 5.79141 6.61172 5.95 7.05469C6.25078 7.8832 6.30273 7.98438 6.43398 7.98438C6.5625 7.98438 6.60352 7.91602 6.79492 7.38555C6.89883 7.09844 6.9918 6.86328 7 6.86328C7.0082 6.86328 7.10117 7.09844 7.20508 7.38555C7.32812 7.73008 7.41016 7.91875 7.44844 7.94609C7.53047 8.00078 7.62344 7.99258 7.6918 7.92148C7.75469 7.86133 8.33984 6.3 8.33984 6.19883C8.33984 6.12773 8.2168 6.01562 8.14023 6.01562C8.01172 6.01562 7.95977 6.09765 7.76562 6.62812C7.65898 6.9125 7.57148 7.15039 7.56602 7.15312C7.56328 7.15859 7.47305 6.92617 7.36914 6.6418C7.18047 6.11679 7.12031 6.01562 7 6.01562C6.87969 6.01562 6.81953 6.11679 6.62813 6.6418C6.52422 6.92617 6.43672 7.15586 6.43125 7.15312C6.42852 7.14766 6.33828 6.9125 6.23438 6.62812C6.11406 6.30273 6.02383 6.09492 5.98555 6.06211C5.90352 5.99648 5.80508 6.00469 5.72852 6.08398Z" fill="#FB1B1D"/>
<path d="M8.78551 6.07028C8.75269 6.09762 8.71988 6.14684 8.71168 6.17419C8.68707 6.24801 9.28316 7.87497 9.35426 7.93513C9.38707 7.96247 9.43902 7.98434 9.47457 7.98434C9.60035 7.98434 9.64957 7.89958 9.84098 7.37458C9.94488 7.0902 10.0351 6.85505 10.0406 6.84958C10.0461 6.84411 10.1336 7.0738 10.2375 7.36091C10.3414 7.64528 10.4453 7.89684 10.4644 7.91872C10.5355 7.98708 10.6367 7.99528 10.7132 7.93786C10.7734 7.89411 10.8418 7.73005 11.0796 7.07927C11.241 6.6363 11.375 6.24801 11.375 6.21247C11.375 6.13044 11.2601 6.01559 11.1781 6.01559C11.0441 6.01559 11.0058 6.08122 10.8117 6.61716C10.7078 6.90153 10.6148 7.13669 10.6066 7.13669C10.5984 7.13669 10.5082 6.907 10.407 6.62262C10.2183 6.10309 10.1691 6.01559 10.0461 6.01559C9.92027 6.01559 9.85738 6.1195 9.66598 6.6527C9.56207 6.93434 9.4773 7.1613 9.47184 7.15856C9.4691 7.15309 9.38434 6.92341 9.28316 6.6445C9.09449 6.12223 9.0316 6.01559 8.90308 6.01559C8.87027 6.01559 8.81558 6.0402 8.78551 6.07028Z" fill="#FB1B1D"/>
</svg>
